<svg xmlns="http://www.w3.org/2000/svg" xmlns:xlink="http://www.w3.org/1999/xlink" viewBox="0 0 157 21">
  <defs>
    <path id="a" d="M5.152 0c2.59 0 4.452 1.484 4.774 3.808H7.532c-.308-1.036-1.19-1.624-2.436-1.624-1.68 0-2.702 1.19-2.702 3.164 0 1.946 1.036 3.164 2.702 3.164 1.274 0 2.212-.63 2.492-1.652H9.94c-.364 2.31-2.296 3.836-4.886 3.836C1.946 10.696 0 8.638 0 5.362 0 2.128 2.058 0 5.152 0Z"/>
    <path id="b" d="m2.422 0 1.96 5.236c.238.644.434 1.288.658 2.184a23.52 23.52 0 0 1 .686-2.184L7.658 0h2.366L6.216 10.36H3.878L0 0h2.422Z"/>
    <path id="e" fill="#3F3F3F" d="M0 0h9.072v10.36H0V0z"/>
    <path id="g" fill="#3F3F3F" d="M0 0h2.268v10.36H0V0z"/>
    <path id="j" fill="#3F3F3F" d="M0 0h9.94v10.696H0V0z"/>
    <path id="l" fill="#3F3F3F" d="M0 0h10.15v10.71H0V0z"/>
    <path id="n" fill="#3F3F3F" d="M0 0h10.024v10.36H0V0z"/>
  </defs>
  <defs>
    <clipPath id="c">
      <path d="M1920 0v1080H0V0h1920Z"/>
    </clipPath>
    <clipPath id="d">
      <path d="M3.92 0c3.038 0 5.152 2.128 5.152 5.208 0 3.024-2.058 5.152-5.012 5.152H0V0Zm-.224 2.1H2.268v6.16h1.568c1.792 0 2.842-1.134 2.842-3.052 0-1.96-1.106-3.108-2.982-3.108Z"/>
    </clipPath>
    <clipPath id="f">
      <path d="M2.268 0v10.36H0V0h2.268Z"/>
    </clipPath>
    <clipPath id="h">
      <path d="M3.962 0c2.226 0 3.626 1.232 3.626 3.192H5.334c0-.728-.546-1.176-1.4-1.176-.924 0-1.512.42-1.512 1.106 0 .63.322.938 1.05 1.092l1.554.322c1.848.378 2.73 1.26 2.73 2.898 0 2.002-1.568 3.304-3.948 3.304C1.498 10.738 0 9.492 0 7.546h2.254c0 .756.56 1.176 1.568 1.176 1.022 0 1.666-.406 1.666-1.064 0-.574-.266-.868-.952-1.008l-1.582-.322C1.106 5.95.154 4.9.154 3.206.154 1.33 1.736 0 3.962 0Z"/>
    </clipPath>
    <clipPath id="i">
      <use xlink:href="#a"/>
    </clipPath>
    <clipPath id="k">
      <path d="M5.068 0c3.01 0 5.082 2.184 5.082 5.348 0 3.164-2.086 5.362-5.096 5.362C2.058 10.71 0 8.526 0 5.362 0 2.198 2.072 0 5.068 0Zm.014 2.184c-1.68 0-2.688 1.19-2.688 3.164 0 1.988 1.008 3.178 2.688 3.178 1.666 0 2.674-1.218 2.674-3.178 0-1.974-1.008-3.164-2.674-3.164Z"/>
    </clipPath>
    <clipPath id="m">
      <use xlink:href="#b"/>
    </clipPath>
    <clipPath id="o">
      <path d="M6.58 0v2.1H2.268v2.03H6.09v1.988H2.268V8.26H6.58v2.1H0V0h6.58Z"/>
    </clipPath>
    <clipPath id="p">
      <path d="M4.004 0c2.52 0 3.948 1.218 3.948 3.36 0 1.344-.574 2.296-1.722 2.884l1.82 4.116H5.572L4.018 6.734h-1.75v3.626H0V0Zm0 2.016H2.268v2.73H3.99c.994 0 1.568-.504 1.568-1.386 0-.868-.546-1.344-1.554-1.344Z"/>
    </clipPath>
    <clipPath id="q">
      <path d="M2.534 0 4.27 3.36c.168.322.28.574.392.84.126-.252.238-.518.406-.854L6.804 0h2.464l-3.5 6.426v3.934H3.5V6.426L0 0h2.534Z"/>
    </clipPath>
    <clipPath id="r">
      <use xlink:href="#a"/>
    </clipPath>
    <clipPath id="s">
      <use xlink:href="#b"/>
    </clipPath>
    <clipPath id="t">
      <path d="M10.255 1.304a1.593 1.593 0 0 1-.703 1.66l.19.965.47.762c.03.05.085.08.142.08 1.076 0 2.082.303 2.942.831a.163.163 0 0 0 .155.01l.735-.347.858-.944a1.174 1.174 0 0 1 .29-.969 1.131 1.131 0 0 1 1.668-.012c.404.43.42 1.115.036 1.564-.248.29-.603.424-.951.398l-.858.944-.279.762a.171.171 0 0 0 .022.158c.338.473.608.999.795 1.564a.491.491 0 0 0 .328.32l.698.2.906-.082c.223-.652.778-1.145 1.46-1.215.937-.096 1.759.645 1.835 1.655.077 1.009-.621 1.905-1.559 2-.717.074-1.367-.344-1.666-.995l-.851.076-.642.315a.493.493 0 0 0-.269.379 5.84 5.84 0 0 1-.323 1.272.498.498 0 0 0 .027.418l.23.416.635.434c.336-.13.726-.1 1.047.12.545.371.675 1.136.27 1.674a1.136 1.136 0 0 1-1.49.293 1.162 1.162 0 0 1-.55-.84l-.705-.48-.443-.056a.506.506 0 0 0-.416.142 5.747 5.747 0 0 1-1.257.924.514.514 0 0 0-.265.422l-.056.915.28 1.126c.474.135.867.518.996 1.039a1.447 1.447 0 0 1-1.07 1.764 1.425 1.425 0 0 1-1.66-.96 1.463 1.463 0 0 1 .357-1.484l-.28-1.132-.434-.708a.632.632 0 0 0-.541-.302c-.383 0-.754-.039-1.113-.11a.626.626 0 0 0-.584.186l-.572.614-.64 1.351c.15.31.163.684.004 1.02a1.136 1.136 0 0 1-1.594.508 1.178 1.178 0 0 1-.496-1.453c.148-.366.454-.611.801-.693l.645-1.36.126-.913a.49.49 0 0 0-.17-.445 5.83 5.83 0 0 1-1.296-1.51.474.474 0 0 0-.403-.232l-.897-.009-.98.314a1.62 1.62 0 0 1-1.11 1.371c-.838.268-1.73-.2-2.002-1.046-.271-.846.187-1.771 1.018-2.05a1.58 1.58 0 0 1 1.606.366l1.042-.333.76-.551a.4.4 0 0 0 .163-.359 5.852 5.852 0 0 1 .5-2.888.403.403 0 0 0-.004-.339l-.226-.468-.611-.47c-.343.112-.73.059-1.039-.178a1.177 1.177 0 0 1-.179-1.687 1.136 1.136 0 0 1 1.504-.209c.303.207.476.532.503.87l.678.52.683.124A5.71 5.71 0 0 1 8.19 5.205l.16-.99-.202-1.024c-.598-.157-1.085-.624-1.216-1.246-.184-.88.41-1.736 1.328-1.913.917-.177 1.81.392 1.996 1.272Z"/>
    </clipPath>
    <clipPath id="u">
      <path d="M4.5 0a4.5 4.5 0 1 1 0 9 4.5 4.5 0 0 1 0-9Z"/>
    </clipPath>
    <clipPath id="v">
      <path d="M4.339 0c.225 0 .445.018.661.052C2.918.382 1.322 2.248 1.322 4.5c0 2.252 1.596 4.118 3.678 4.448A4.219 4.219 0 0 1 4.339 9C1.942 9 0 6.985 0 4.5S1.942 0 4.339 0Z"/>
    </clipPath>
    <clipPath id="w">
      <path d="M1.23 0a1.23 1.23 0 1 1-.003 2.461A1.23 1.23 0 0 1 1.23 0Z"/>
    </clipPath>
    <clipPath id="x">
      <path d="M.812 0a.813.813 0 1 1-.001 1.626A.813.813 0 0 1 .812 0Z"/>
    </clipPath>
    <clipPath id="y">
      <path d="M1.196 0a1.197 1.197 0 1 1-.002 2.394A1.197 1.197 0 0 1 1.196 0Z"/>
    </clipPath>
    <clipPath id="z">
      <path d="M1.115 0a1.116 1.116 0 1 1-.002 2.232A1.116 1.116 0 0 1 1.115 0Z"/>
    </clipPath>
    <clipPath id="A">
      <path d="M.759 0a.76.76 0 1 1-.001 1.52A.76.76 0 0 1 .759 0Z"/>
    </clipPath>
    <clipPath id="B">
      <path d="M.637 0a.638.638 0 1 1 0 1.276.638.638 0 0 1 0-1.276Z"/>
    </clipPath>
  </defs>
  <g clip-path="url(#c)" transform="translate(-674 -68)">
    <g clip-path="url(#d)" transform="translate(699.078 73.64)">
      <use xlink:href="#e"/>
    </g>
    <g clip-path="url(#f)" transform="translate(709.732 73.64)">
      <use xlink:href="#g"/>
    </g>
    <g clip-path="url(#h)" transform="translate(713.428 73.444)">
      <path fill="#3F3F3F" d="M0 0h7.756v10.738H0V0z"/>
    </g>
    <g clip-path="url(#i)" transform="translate(722.108 73.472)">
      <use xlink:href="#j"/>
    </g>
    <g clip-path="url(#k)" transform="translate(732.986 73.458)">
      <use xlink:href="#l"/>
    </g>
    <g clip-path="url(#m)" transform="translate(743.22 73.64)">
      <use xlink:href="#n"/>
    </g>
    <g clip-path="url(#o)" transform="translate(754.462 73.64)">
      <path fill="#3F3F3F" d="M0 0h6.58v10.36H0V0z"/>
    </g>
    <g clip-path="url(#p)" transform="translate(762.904 73.64)">
      <path fill="#3F3F3F" d="M0 0h8.05v10.36H0V0z"/>
    </g>
    <g clip-path="url(#q)" transform="translate(771.318 73.64)">
      <path fill="#3F3F3F" d="M0 0h9.268v10.36H0V0z"/>
    </g>
    <g clip-path="url(#r)" transform="translate(784.94 73.472)">
      <use xlink:href="#j"/>
    </g>
    <g clip-path="url(#k)" transform="translate(795.818 73.458)">
      <use xlink:href="#l"/>
    </g>
    <g clip-path="url(#s)" transform="translate(806.052 73.64)">
      <use xlink:href="#n"/>
    </g>
    <g clip-path="url(#f)" transform="translate(817.294 73.64)">
      <use xlink:href="#g"/>
    </g>
    <g clip-path="url(#d)" transform="translate(821.718 73.64)">
      <use xlink:href="#e"/>
    </g>
    <g clip-path="url(#t)" transform="translate(674 68)">
      <path fill="#A1A1AA" d="M0 0h21v21H0V0z"/>
    </g>
    <g clip-path="url(#u)" transform="translate(680 74)">
      <path fill="#E3E3E7" d="M0 0h9v9H0V0z"/>
    </g>
    <g clip-path="url(#v)" transform="translate(680 74)">
      <path fill="#D3D3D3" d="M0 0h5v9H0V0z"/>
    </g>
    <g clip-path="url(#w)" transform="translate(676 68)">
      <path fill="#A1A1AA" d="M0 0h2.459v2.463H0V0z"/>
    </g>
    <g clip-path="url(#x)" transform="translate(676.081 84.652)">
      <path fill="#A1A1AA" d="M0 0h1.624v1.627H0V0z"/>
    </g>
    <g clip-path="url(#y)" transform="translate(690.608 85.604)">
      <path fill="#A1A1AA" d="M0 0h2.392v2.396H0V0z"/>
    </g>
    <g clip-path="url(#z)" transform="translate(682.053 76.016)">
      <path fill="#A1A1AA" d="M0 0h2.23v2.234H0V0z"/>
    </g>
    <g clip-path="url(#A)" transform="translate(683.305 79.842)">
      <path fill="#A1A1AA" d="M0 0h1.518v1.521H0V0z"/>
    </g>
    <g clip-path="url(#B)" transform="translate(685.81 77.687)">
      <path fill="#A1A1AA" d="M0 0h1.275v1.277H0V0z"/>
    </g>
  </g>
</svg>